<svg width="2200" height="2200" xmlns="http://www.w3.org/2000/svg" xmlns:xlink="http://www.w3.org/1999/xlink" xml:space="preserve" overflow="hidden"><g transform="translate(-1100 -137)"><g><path d="M1102 1237.5C1102 631.367 1593.59 140 2200 140 2806.41 140 3298 631.367 3298 1237.5 3298 1843.63 2806.41 2335 2200 2335 1593.59 2335 1102 1843.63 1102 1237.5Z" fill="#156082" fill-rule="evenodd" fill-opacity="1"/><path d="M1216 1237.5C1216 693.776 1656.55 253 2200 253 2743.45 253 3184 693.776 3184 1237.5 3184 1781.22 2743.45 2222 2200 2222 1656.55 2222 1216 1781.22 1216 1237.5Z" fill="#AEAEAE" fill-rule="evenodd" fill-opacity="1"/><path d="M1322 1237.5C1322 752.318 1715.09 359 2200 359 2684.91 359 3078 752.318 3078 1237.5 3078 1722.68 2684.91 2116 2200 2116 1715.09 2116 1322 1722.68 1322 1237.5Z" fill="#000000" fill-rule="evenodd" fill-opacity="1"/><path d="M1427 1237.5C1427 810.86 1773.08 465 2200 465 2626.92 465 2973 810.86 2973 1237.5 2973 1664.14 2626.92 2010 2200 2010 1773.08 2010 1427 1664.14 1427 1237.5Z" fill="#E97132" fill-rule="evenodd" fill-opacity="1"/></g></g></svg>